         1            159       131       130       158         1
         2            162       132       131       159         1
         3            166       135       132       162         1
         4            169       140       135       166         1
         5            174       144       140       169         1
         6            177       146       144       174         1
         7            185       154       146       177         1
         8            189       161       154       185         1
         9            198       170       161       189         1
        10            205       180       170       198         1
        11            131       105       103       130         1
        12            132       106       105       131         1
        13            135       108       106       132         1
        14            140       113       108       135         1
        15            144       117       113       140         1
        16            146       121       117       144         1
        17            154       127       121       146         1
        18            161       134       127       154         1
        19            170       145       134       161         1
        20            180       152       145       170         1
        21            105        81        80       103         1
        22            106        83        81       105         1
        23            108        86        83       106         1
        24            113        89        86       108         1
        25            117        94        89       113         1
        26            121        96        94       117         1
        27            127       104        96       121         1
        28            134       112       104       127         1
        29            145       119       112       134         1
        30            152       128       119       145         1
        31             81        62        59        80         1
        32             83        63        62        81         1
        33             86        65        63        83         1
        34             89        68        65        86         1
        35             94        72        68        89         1
        36             96        77        72        94         1
        37            104        85        77        96         1
        38            112        92        85       104         1
        39            119        99        92       112         1
        40            128       109        99       119         1
        41             62        44        42        59         1
        42             63        46        44        62         1
        43             65        48        46        63         1
        44             68        51        48        65         1
        45             72        55        51        68         1
        46             77        61        55        72         1
        47             85        67        61        77         1
        48             92        74        67        85         1
        49             99        82        74        92         1
        50            109        93        82        99         1
        51             44        30        28        42         1
        52             46        32        30        44         1
        53             48        33        32        46         1
        54             51        38        33        48         1
        55             55        39        38        51         1
        56             61        47        39        55         1
        57             67        53        47        61         1
        58             74        58        53        67         1
        59             82        69        58        74         1
        60             93        76        69        82         1
        61             30        19        18        28         1
        62             32        20        19        30         1
        63             33        23        20        32         1
        64             38        25        23        33         1
        65             39        31        25        38         1
        66             47        36        31        39         1
        67             53        41        36        47         1
        68             58        49        41        53         1
        69             69        56        49        58         1
        70             76        66        56        69         1
        71             19        10         9        18         1
        72             20        12        10        19         1
        73             23        14        12        20         1
        74             25        17        14        23         1
        75             31        22        17        25         1
        76             36        26        22        31         1
        77             41        34        26        36         1
        78             49        40        34        41         1
        79             56        50        40        49         1
        80             66        57        50        56         1
        81             10         5         3         9         1
        82             12         6         5        10         1
        83             14         8         6        12         1
        84             17        13         8        14         1
        85             22        16        13        17         1
        86             26        24        16        22         1
        87             34        29        24        26         1
        88             40        37        29        34         1
        89             50        45        37        40         1
        90             57        54        45        50         1
        91              5         2         1         3         1
        92              6         4         2         5         1
        93              8         7         4         6         1
        94             13        11         7         8         1
        95             16        15        11        13         1
        96             24        21        15        16         1
        97             29        27        21        24         1
        98             37        35        27        29         1
        99             45        43        35        37         1
       100             54        52        43        45         1
       101             54        64        60        52         1
       102             57        70        64        54         1
       103             66        75        70        57         1
       104             76        88        75        66         1
       105             93       100        88        76         1
       106            109       118       100        93         1
       107            128       139       118       109         1
       108            152       160       139       128         1
       109            180       186       160       152         1
       110            205       210       186       180         1
       111             64        73        71        60         1
       112             70        78        73        64         1
       113             75        87        78        70         1
       114             88        97        87        75         1
       115            100       114        97        88         1
       116            118       129       114       100         1
       117            139       148       129       118         1
       118            160       171       148       139         1
       119            186       194       171       160         1
       120            210       218       194       186         1
       121             73        84        79        71         1
       122             78        90        84        73         1
       123             87        98        90        78         1
       124             97       110        98        87         1
       125            114       124       110        97         1
       126            129       141       124       114         1
       127            148       157       141       129         1
       128            171       182       157       148         1
       129            194       201       182       171         1
       130            218       224       201       194         1
       131             84        95        91        79         1
       132             90       101        95        84         1
       133             98       111       101        90         1
       134            110       122       111        98         1
       135            124       137       122       110         1
       136            141       153       137       124         1
       137            157       172       153       141         1
       138            182       191       172       157         1
       139            201       211       191       182         1
       140            224       230       211       201         1
       141             95       107       102        91         1
       142            101       116       107        95         1
       143            111       123       116       101         1
       144            122       136       123       111         1
       145            137       150       136       122         1
       146            153       167       150       137         1
       147            172       184       167       153         1
       148            191       199       184       172         1
       149            211       220       199       191         1
       150            230       237       220       211         1
       151            107       120       115       102         1
       152            116       126       120       107         1
       153            123       138       126       116         1
       154            136       149       138       123         1
       155            150       163       149       136         1
       156            167       179       163       150         1
       157            184       196       179       167         1
       158            199       212       196       184         1
       159            220       226       212       199         1
       160            237       245       226       220         1
       161            120       133       125       115         1
       162            126       143       133       120         1
       163            138       151       143       126         1
       164            149       165       151       138         1
       165            163       176       165       149         1
       166            179       192       176       163         1
       167            196       207       192       179         1
       168            212       221       207       196         1
       169            226       236       221       212         1
       170            245       253       236       226         1
       171            133       147       142       125         1
       172            143       155       147       133         1
       173            151       168       155       143         1
       174            165       178       168       151         1
       175            176       190       178       165         1
       176            192       203       190       176         1
       177            207       216       203       192         1
       178            221       232       216       207         1
       179            236       246       232       221         1
       180            253       259       246       236         1
       181            147       164       156       142         1
       182            155       173       164       147         1
       183            168       183       173       155         1
       184            178       193       183       168         1
       185            190       204       193       178         1
       186            203       214       204       190         1
       187            216       227       214       203         1
       188            232       241       227       216         1
       189            246       254       241       232         1
       190            259       268       254       246         1
       191            164       181       175       156         1
       192            173       187       181       164         1
       193            183       197       187       173         1
       194            193       206       197       183         1
       195            204       215       206       193         1
       196            214       225       215       204         1
       197            227       239       225       214         1
       198            241       251       239       227         1
       199            254       264       251       241         1
       200            268       277       264       254         1
       201            181       195       188       175         1
       202            187       200       195       181         1
       203            197       209       200       187         1
       204            206       219       209       197         1
       205            215       228       219       206         1
       206            225       238       228       215         1
       207            239       249       238       225         1
       208            251       260       249       239         1
       209            264       272       260       251         1
       210            277       285       272       264         1
       211            195       208       202       188         1
       212            200       213       208       195         1
       213            209       223       213       200         1
       214            219       233       223       209         1
       215            228       240       233       219         1
       216            238       250       240       228         1
       217            249       258       250       238         1
       218            260       269       258       249         1
       219            272       281       269       260         1
       220            285       293       281       272         1
       221            208       222       217       202         1
       222            213       229       222       208         1
       223            223       234       229       213         1
       224            233       243       234       223         1
       225            240       252       243       233         1
       226            250       262       252       240         1
       227            258       271       262       250         1
       228            269       280       271       258         1
       229            281       290       280       269         1
       230            293       301       290       281         1
       231            222       235       231       217         1
       232            229       242       235       222         1
       233            234       247       242       229         1
       234            243       256       247       234         1
       235            252       265       256       243         1
       236            262       273       265       252         1
       237            271       282       273       262         1
       238            280       289       282       271         1
       239            290       299       289       280         1
       240            301       307       299       290         1
       241            235       248       244       231         1
       242            242       255       248       235         1
       243            247       261       255       242         1
       244            256       267       261       247         1
       245            265       276       267       256         1
       246            273       283       276       265         1
       247            282       291       283       273         1
       248            289       300       291       282         1
       249            299       308       300       289         1
       250            307       317       308       299         1
       251            248       263       257       244         1
       252            255       266       263       248         1
       253            261       274       266       255         1
       254            267       278       274       261         1
       255            276       287       278       267         1
       256            283       295       287       276         1
       257            291       303       295       283         1
       258            300       311       303       291         1
       259            308       319       311       300         1
       260            317       325       319       308         1
       261            263       275       270       257         1
       262            266       279       275       263         1
       263            274       286       279       266         1
       264            278       292       286       274         1
       265            287       298       292       278         1
       266            295       306       298       287         1
       267            303       313       306       295         1
       268            311       320       313       303         1
       269            319       328       320       311         1
       270            325       334       328       319         1
       271            275       288       284       270         1
       272            279       294       288       275         1
       273            286       297       294       279         1
       274            292       304       297       286         1
       275            298       310       304       292         1
       276            306       316       310       298         1
       277            313       324       316       306         1
       278            320       330       324       313         1
       279            328       337       330       320         1
       280            334       343       337       328         1
       281            288       302       296       284         1
       282            294       305       302       288         1
       283            297       312       305       294         1
       284            304       315       312       297         1
       285            310       321       315       304         1
       286            316       327       321       310         1
       287            324       333       327       316         1
       288            330       340       333       324         1
       289            337       346       340       330         1
       290            343       353       346       337         1
       291            302       314       309       296         1
       292            305       318       314       302         1
       293            312       323       318       305         1
       294            315       329       323       312         1
       295            321       332       329       315         1
       296            327       338       332       321         1
       297            333       344       338       327         1
       298            340       349       344       333         1
       299            346       354       349       340         1
       300            353       360       354       346         1
       301            418       421       432       429         1
       302            406       410       421       418         1
       303            395       399       410       406         1
       304            384       387       399       395         1
       305            373       375       387       384         1
       306            361       364       375       373         1
       307            348       351       364       361         1
       308            336       339       351       348         1
       309            322       326       339       336         1
       310            309       314       326       322         1
       311            421       425       436       432         1
       312            410       413       425       421         1
       313            399       401       413       410         1
       314            387       390       401       399         1
       315            375       378       390       387         1
       316            364       367       378       375         1
       317            351       356       367       364         1
       318            339       342       356       351         1
       319            326       331       342       339         1
       320            314       318       331       326         1
       321            425       427       438       436         1
       322            413       416       427       425         1
       323            401       404       416       413         1
       324            390       393       404       401         1
       325            378       382       393       390         1
       326            367       371       382       378         1
       327            356       358       371       367         1
       328            342       347       358       356         1
       329            331       335       347       342         1
       330            318       323       335       331         1
       331            427       430       441       438         1
       332            416       419       430       427         1
       333            404       408       419       416         1
       334            393       397       408       404         1
       335            382       385       397       393         1
       336            371       374       385       382         1
       337            358       363       374       371         1
       338            347       352       363       358         1
       339            335       341       352       347         1
       340            323       329       341       335         1
       341            430       434       443       441         1
       342            419       423       434       430         1
       343            408       411       423       419         1
       344            397       400       411       408         1
       345            385       389       400       397         1
       346            374       379       389       385         1
       347            363       368       379       374         1
       348            352       357       368       363         1
       349            341       345       357       352         1
       350            329       332       345       341         1
       351            434       437       445       443         1
       352            423       426       437       434         1
       353            411       415       426       423         1
       354            400       405       415       411         1
       355            389       394       405       400         1
       356            379       383       394       389         1
       357            368       372       383       379         1
       358            357       362       372       368         1
       359            345       350       362       357         1
       360            332       338       350       345         1
       361            437       440       447       445         1
       362            426       431       440       437         1
       363            415       420       431       426         1
       364            405       409       420       415         1
       365            394       398       409       405         1
       366            383       388       398       394         1
       367            372       377       388       383         1
       368            362       366       377       372         1
       369            350       355       366       362         1
       370            338       344       355       350         1
       371            440       444       449       447         1
       372            431       435       444       440         1
       373            420       424       435       431         1
       374            409       414       424       420         1
       375            398       403       414       409         1
       376            388       392       403       398         1
       377            377       381       392       388         1
       378            366       369       381       377         1
       379            355       359       369       366         1
       380            344       349       359       355         1
       381            444       446       450       449         1
       382            435       439       446       444         1
       383            424       428       439       435         1
       384            414       417       428       424         1
       385            403       407       417       414         1
       386            392       396       407       403         1
       387            381       386       396       392         1
       388            369       376       386       381         1
       389            359       365       376       369         1
       390            349       354       365       359         1
       391            446       448       451       450         1
       392            439       442       448       446         1
       393            428       433       442       439         1
       394            417       422       433       428         1
       395            407       412       422       417         1
       396            396       402       412       407         1
       397            386       391       402       396         1
       398            376       380       391       386         1
       399            365       370       380       376         1
       400            354       360       370       365         1
