  1  1  2  8  7
  2  2  3  9  8
  3  3  4  10  9
  4  4  5  11  10
  5  5  6  12  11
  6  7  8  14  13
  7  8  9  15  14
  8  9  10  16  15
  9  10  11  17  16
  10  11  12  18  17
  11  13  14  20  19
  12  14  15  21  20
  13  15  16  22  21
  14  16  17  23  22
  15  17  18  24  23
  16  19  20  26  25
  17  20  21  27  26
  18  21  22  28  27
  19  22  23  29  28
  20  23  24  30  29
  21  26  27  32  31
  22  27  28  33  32
  23  28  29  34  33
  24  31  32  36  35
  25  32  33  37  36
  26  33  34  38  37
  27  35  36  40  39
  28  36  37  41  40
  29  37  38  42  41
  30  39  40  44  43
  31  40  41  45  44
  32  41  42  46  45
