         1         1         5       141       140         1
         2         5         6       142       141         1
         3         6         7       143       142         1
         4         7         8       144       143         1
         5         8         9       145       144         1
         6         9        10       146       145         1
         7        10        11       147       146         1
         8        11        12       148       147         1
         9        12        13       149       148         1
        10        13        14       150       149         1
        11        14        15       151       150         1
        12        15        16       152       151         1
        13        16        17       153       152         1
        14        17        18       154       153         1
        15        18        19       155       154         1
        16        19        20       156       155         1
        17        20        21       157       156         1
        18        21        22       158       157         1
        19        22        23       159       158         1
        20        23        24       160       159         1
        21        24        25       161       160         1
        22        25        26       162       161         1
        23        26        27       163       162         1
        24        27        28       164       163         1
        25        28        29       165       164         1
        26        29        30       166       165         1
        27        30        31       167       166         1
        28        31        32       168       167         1
        29        32        33       169       168         1
        30        33        34       170       169         1
        31        34        35       171       170         1
        32        35        36       172       171         1
        33        36        37       173       172         1
        34        37        38       174       173         1
        35        38        39       175       174         1
        36        39        40       176       175         1
        37        40        41       177       176         1
        38        41        42       178       177         1
        39        42        43       179       178         1
        40        43        44       180       179         1
        41        44        45       181       180         1
        42        45        46       182       181         1
        43        46        47       183       182         1
        44        47        48       184       183         1
        45        48        49       185       184         1
        46        49        50       186       185         1
        47        50        51       187       186         1
        48        51        52       188       187         1
        49        52        53       189       188         1
        50        53        54       190       189         1
        51        54        55       191       190         1
        52        55        56       192       191         1
        53        56        57       193       192         1
        54        57        58       194       193         1
        55        58        59       195       194         1
        56        59        60       196       195         1
        57        60        61       197       196         1
        58        61        62       198       197         1
        59        62        63       199       198         1
        60        63         2        64       199         1
        61       140       141       200       139         1
        62       141       142       201       200         1
        63       142       143       202       201         1
        64       143       144       203       202         1
        65       144       145       204       203         1
        66       145       146       205       204         1
        67       146       147       206       205         1
        68       147       148       207       206         1
        69       148       149       208       207         1
        70       149       150       209       208         1
        71       150       151       210       209         1
        72       151       152       211       210         1
        73       152       153       212       211         1
        74       153       154       213       212         1
        75       154       155       214       213         1
        76       155       156       215       214         1
        77       156       157       216       215         1
        78       157       158       217       216         1
        79       158       159       218       217         1
        80       159       160       219       218         1
        81       160       161       220       219         1
        82       161       162       221       220         1
        83       162       163       222       221         1
        84       163       164       223       222         1
        85       164       165       224       223         1
        86       165       166       225       224         1
        87       166       167       226       225         1
        88       167       168       227       226         1
        89       168       169       228       227         1
        90       169       170       229       228         1
        91       170       171       230       229         1
        92       171       172       231       230         1
        93       172       173       232       231         1
        94       173       174       233       232         1
        95       174       175       234       233         1
        96       175       176       235       234         1
        97       176       177       236       235         1
        98       177       178       237       236         1
        99       178       179       238       237         1
       100       179       180       239       238         1
       101       180       181       240       239         1
       102       181       182       241       240         1
       103       182       183       242       241         1
       104       183       184       243       242         1
       105       184       185       244       243         1
       106       185       186       245       244         1
       107       186       187       246       245         1
       108       187       188       247       246         1
       109       188       189       248       247         1
       110       189       190       249       248         1
       111       190       191       250       249         1
       112       191       192       251       250         1
       113       192       193       252       251         1
       114       193       194       253       252         1
       115       194       195       254       253         1
       116       195       196       255       254         1
       117       196       197       256       255         1
       118       197       198       257       256         1
       119       198       199       258       257         1
       120       199        64        65       258         1
       121       139       200       259       138         1
       122       200       201       260       259         1
       123       201       202       261       260         1
       124       202       203       262       261         1
       125       203       204       263       262         1
       126       204       205       264       263         1
       127       205       206       265       264         1
       128       206       207       266       265         1
       129       207       208       267       266         1
       130       208       209       268       267         1
       131       209       210       269       268         1
       132       210       211       270       269         1
       133       211       212       271       270         1
       134       212       213       272       271         1
       135       213       214       273       272         1
       136       214       215       274       273         1
       137       215       216       275       274         1
       138       216       217       276       275         1
       139       217       218       277       276         1
       140       218       219       278       277         1
       141       219       220       279       278         1
       142       220       221       280       279         1
       143       221       222       281       280         1
       144       222       223       282       281         1
       145       223       224       283       282         1
       146       224       225       284       283         1
       147       225       226       285       284         1
       148       226       227       286       285         1
       149       227       228       287       286         1
       150       228       229       288       287         1
       151       229       230       289       288         1
       152       230       231       290       289         1
       153       231       232       291       290         1
       154       232       233       292       291         1
       155       233       234       293       292         1
       156       234       235       294       293         1
       157       235       236       295       294         1
       158       236       237       296       295         1
       159       237       238       297       296         1
       160       238       239       298       297         1
       161       239       240       299       298         1
       162       240       241       300       299         1
       163       241       242       301       300         1
       164       242       243       302       301         1
       165       243       244       303       302         1
       166       244       245       304       303         1
       167       245       246       305       304         1
       168       246       247       306       305         1
       169       247       248       307       306         1
       170       248       249       308       307         1
       171       249       250       309       308         1
       172       250       251       310       309         1
       173       251       252       311       310         1
       174       252       253       312       311         1
       175       253       254       313       312         1
       176       254       255       314       313         1
       177       255       256       315       314         1
       178       256       257       316       315         1
       179       257       258       317       316         1
       180       258        65        66       317         1
       181       138       259       318       137         1
       182       259       260       319       318         1
       183       260       261       320       319         1
       184       261       262       321       320         1
       185       262       263       322       321         1
       186       263       264       323       322         1
       187       264       265       324       323         1
       188       265       266       325       324         1
       189       266       267       326       325         1
       190       267       268       327       326         1
       191       268       269       328       327         1
       192       269       270       329       328         1
       193       270       271       330       329         1
       194       271       272       331       330         1
       195       272       273       332       331         1
       196       273       274       333       332         1
       197       274       275       334       333         1
       198       275       276       335       334         1
       199       276       277       336       335         1
       200       277       278       337       336         1
       201       278       279       338       337         1
       202       279       280       339       338         1
       203       280       281       340       339         1
       204       281       282       341       340         1
       205       282       283       342       341         1
       206       283       284       343       342         1
       207       284       285       344       343         1
       208       285       286       345       344         1
       209       286       287       346       345         1
       210       287       288       347       346         1
       211       288       289       348       347         1
       212       289       290       349       348         1
       213       290       291       350       349         1
       214       291       292       351       350         1
       215       292       293       352       351         1
       216       293       294       353       352         1
       217       294       295       354       353         1
       218       295       296       355       354         1
       219       296       297       356       355         1
       220       297       298       357       356         1
       221       298       299       358       357         1
       222       299       300       359       358         1
       223       300       301       360       359         1
       224       301       302       361       360         1
       225       302       303       362       361         1
       226       303       304       363       362         1
       227       304       305       364       363         1
       228       305       306       365       364         1
       229       306       307       366       365         1
       230       307       308       367       366         1
       231       308       309       368       367         1
       232       309       310       369       368         1
       233       310       311       370       369         1
       234       311       312       371       370         1
       235       312       313       372       371         1
       236       313       314       373       372         1
       237       314       315       374       373         1
       238       315       316       375       374         1
       239       316       317       376       375         1
       240       317        66        67       376         1
       241       137       318       377       136         1
       242       318       319       378       377         1
       243       319       320       379       378         1
       244       320       321       380       379         1
       245       321       322       381       380         1
       246       322       323       382       381         1
       247       323       324       383       382         1
       248       324       325       384       383         1
       249       325       326       385       384         1
       250       326       327       386       385         1
       251       327       328       387       386         1
       252       328       329       388       387         1
       253       329       330       389       388         1
       254       330       331       390       389         1
       255       331       332       391       390         1
       256       332       333       392       391         1
       257       333       334       393       392         1
       258       334       335       394       393         1
       259       335       336       395       394         1
       260       336       337       396       395         1
       261       337       338       397       396         1
       262       338       339       398       397         1
       263       339       340       399       398         1
       264       340       341       400       399         1
       265       341       342       401       400         1
       266       342       343       402       401         1
       267       343       344       403       402         1
       268       344       345       404       403         1
       269       345       346       405       404         1
       270       346       347       406       405         1
       271       347       348       407       406         1
       272       348       349       408       407         1
       273       349       350       409       408         1
       274       350       351       410       409         1
       275       351       352       411       410         1
       276       352       353       412       411         1
       277       353       354       413       412         1
       278       354       355       414       413         1
       279       355       356       415       414         1
       280       356       357       416       415         1
       281       357       358       417       416         1
       282       358       359       418       417         1
       283       359       360       419       418         1
       284       360       361       420       419         1
       285       361       362       421       420         1
       286       362       363       422       421         1
       287       363       364       423       422         1
       288       364       365       424       423         1
       289       365       366       425       424         1
       290       366       367       426       425         1
       291       367       368       427       426         1
       292       368       369       428       427         1
       293       369       370       429       428         1
       294       370       371       430       429         1
       295       371       372       431       430         1
       296       372       373       432       431         1
       297       373       374       433       432         1
       298       374       375       434       433         1
       299       375       376       435       434         1
       300       376        67        68       435         1
       301       136       377       436       135         1
       302       377       378       437       436         1
       303       378       379       438       437         1
       304       379       380       439       438         1
       305       380       381       440       439         1
       306       381       382       441       440         1
       307       382       383       442       441         1
       308       383       384       443       442         1
       309       384       385       444       443         1
       310       385       386       445       444         1
       311       386       387       446       445         1
       312       387       388       447       446         1
       313       388       389       448       447         1
       314       389       390       449       448         1
       315       390       391       450       449         1
       316       391       392       451       450         1
       317       392       393       452       451         1
       318       393       394       453       452         1
       319       394       395       454       453         1
       320       395       396       455       454         1
       321       396       397       456       455         1
       322       397       398       457       456         1
       323       398       399       458       457         1
       324       399       400       459       458         1
       325       400       401       460       459         1
       326       401       402       461       460         1
       327       402       403       462       461         1
       328       403       404       463       462         1
       329       404       405       464       463         1
       330       405       406       465       464         1
       331       406       407       466       465         1
       332       407       408       467       466         1
       333       408       409       468       467         1
       334       409       410       469       468         1
       335       410       411       470       469         1
       336       411       412       471       470         1
       337       412       413       472       471         1
       338       413       414       473       472         1
       339       414       415       474       473         1
       340       415       416       475       474         1
       341       416       417       476       475         1
       342       417       418       477       476         1
       343       418       419       478       477         1
       344       419       420       479       478         1
       345       420       421       480       479         1
       346       421       422       481       480         1
       347       422       423       482       481         1
       348       423       424       483       482         1
       349       424       425       484       483         1
       350       425       426       485       484         1
       351       426       427       486       485         1
       352       427       428       487       486         1
       353       428       429       488       487         1
       354       429       430       489       488         1
       355       430       431       490       489         1
       356       431       432       491       490         1
       357       432       433       492       491         1
       358       433       434       493       492         1
       359       434       435       494       493         1
       360       435        68        69       494         1
       361       135       436       495       134         1
       362       436       437       496       495         1
       363       437       438       497       496         1
       364       438       439       498       497         1
       365       439       440       499       498         1
       366       440       441       500       499         1
       367       441       442       501       500         1
       368       442       443       502       501         1
       369       443       444       503       502         1
       370       444       445       504       503         1
       371       445       446       505       504         1
       372       446       447       506       505         1
       373       447       448       507       506         1
       374       448       449       508       507         1
       375       449       450       509       508         1
       376       450       451       510       509         1
       377       451       452       511       510         1
       378       452       453       512       511         1
       379       453       454       513       512         1
       380       454       455       514       513         1
       381       455       456       515       514         1
       382       456       457       516       515         1
       383       457       458       517       516         1
       384       458       459       518       517         1
       385       459       460       519       518         1
       386       460       461       520       519         1
       387       461       462       521       520         1
       388       462       463       522       521         1
       389       463       464       523       522         1
       390       464       465       524       523         1
       391       465       466       525       524         1
       392       466       467       526       525         1
       393       467       468       527       526         1
       394       468       469       528       527         1
       395       469       470       529       528         1
       396       470       471       530       529         1
       397       471       472       531       530         1
       398       472       473       532       531         1
       399       473       474       533       532         1
       400       474       475       534       533         1
       401       475       476       535       534         1
       402       476       477       536       535         1
       403       477       478       537       536         1
       404       478       479       538       537         1
       405       479       480       539       538         1
       406       480       481       540       539         1
       407       481       482       541       540         1
       408       482       483       542       541         1
       409       483       484       543       542         1
       410       484       485       544       543         1
       411       485       486       545       544         1
       412       486       487       546       545         1
       413       487       488       547       546         1
       414       488       489       548       547         1
       415       489       490       549       548         1
       416       490       491       550       549         1
       417       491       492       551       550         1
       418       492       493       552       551         1
       419       493       494       553       552         1
       420       494        69        70       553         1
       421       134       495       554       133         1
       422       495       496       555       554         1
       423       496       497       556       555         1
       424       497       498       557       556         1
       425       498       499       558       557         1
       426       499       500       559       558         1
       427       500       501       560       559         1
       428       501       502       561       560         1
       429       502       503       562       561         1
       430       503       504       563       562         1
       431       504       505       564       563         1
       432       505       506       565       564         1
       433       506       507       566       565         1
       434       507       508       567       566         1
       435       508       509       568       567         1
       436       509       510       569       568         1
       437       510       511       570       569         1
       438       511       512       571       570         1
       439       512       513       572       571         1
       440       513       514       573       572         1
       441       514       515       574       573         1
       442       515       516       575       574         1
       443       516       517       576       575         1
       444       517       518       577       576         1
       445       518       519       578       577         1
       446       519       520       579       578         1
       447       520       521       580       579         1
       448       521       522       581       580         1
       449       522       523       582       581         1
       450       523       524       583       582         1
       451       524       525       584       583         1
       452       525       526       585       584         1
       453       526       527       586       585         1
       454       527       528       587       586         1
       455       528       529       588       587         1
       456       529       530       589       588         1
       457       530       531       590       589         1
       458       531       532       591       590         1
       459       532       533       592       591         1
       460       533       534       593       592         1
       461       534       535       594       593         1
       462       535       536       595       594         1
       463       536       537       596       595         1
       464       537       538       597       596         1
       465       538       539       598       597         1
       466       539       540       599       598         1
       467       540       541       600       599         1
       468       541       542       601       600         1
       469       542       543       602       601         1
       470       543       544       603       602         1
       471       544       545       604       603         1
       472       545       546       605       604         1
       473       546       547       606       605         1
       474       547       548       607       606         1
       475       548       549       608       607         1
       476       549       550       609       608         1
       477       550       551       610       609         1
       478       551       552       611       610         1
       479       552       553       612       611         1
       480       553        70        71       612         1
       481       133       554       613       132         1
       482       554       555       614       613         1
       483       555       556       615       614         1
       484       556       557       616       615         1
       485       557       558       617       616         1
       486       558       559       618       617         1
       487       559       560       619       618         1
       488       560       561       620       619         1
       489       561       562       621       620         1
       490       562       563       622       621         1
       491       563       564       623       622         1
       492       564       565       624       623         1
       493       565       566       625       624         1
       494       566       567       626       625         1
       495       567       568       627       626         1
       496       568       569       628       627         1
       497       569       570       629       628         1
       498       570       571       630       629         1
       499       571       572       631       630         1
       500       572       573       632       631         1
       501       573       574       633       632         1
       502       574       575       634       633         1
       503       575       576       635       634         1
       504       576       577       636       635         1
       505       577       578       637       636         1
       506       578       579       638       637         1
       507       579       580       639       638         1
       508       580       581       640       639         1
       509       581       582       641       640         1
       510       582       583       642       641         1
       511       583       584       643       642         1
       512       584       585       644       643         1
       513       585       586       645       644         1
       514       586       587       646       645         1
       515       587       588       647       646         1
       516       588       589       648       647         1
       517       589       590       649       648         1
       518       590       591       650       649         1
       519       591       592       651       650         1
       520       592       593       652       651         1
       521       593       594       653       652         1
       522       594       595       654       653         1
       523       595       596       655       654         1
       524       596       597       656       655         1
       525       597       598       657       656         1
       526       598       599       658       657         1
       527       599       600       659       658         1
       528       600       601       660       659         1
       529       601       602       661       660         1
       530       602       603       662       661         1
       531       603       604       663       662         1
       532       604       605       664       663         1
       533       605       606       665       664         1
       534       606       607       666       665         1
       535       607       608       667       666         1
       536       608       609       668       667         1
       537       609       610       669       668         1
       538       610       611       670       669         1
       539       611       612       671       670         1
       540       612        71        72       671         1
       541       132       613       131         4         1
       542       613       614       130       131         1
       543       614       615       129       130         1
       544       615       616       128       129         1
       545       616       617       127       128         1
       546       617       618       126       127         1
       547       618       619       125       126         1
       548       619       620       124       125         1
       549       620       621       123       124         1
       550       621       622       122       123         1
       551       622       623       121       122         1
       552       623       624       120       121         1
       553       624       625       119       120         1
       554       625       626       118       119         1
       555       626       627       117       118         1
       556       627       628       116       117         1
       557       628       629       115       116         1
       558       629       630       114       115         1
       559       630       631       113       114         1
       560       631       632       112       113         1
       561       632       633       111       112         1
       562       633       634       110       111         1
       563       634       635       109       110         1
       564       635       636       108       109         1
       565       636       637       107       108         1
       566       637       638       106       107         1
       567       638       639       105       106         1
       568       639       640       104       105         1
       569       640       641       103       104         1
       570       641       642       102       103         1
       571       642       643       101       102         1
       572       643       644       100       101         1
       573       644       645        99       100         1
       574       645       646        98        99         1
       575       646       647        97        98         1
       576       647       648        96        97         1
       577       648       649        95        96         1
       578       649       650        94        95         1
       579       650       651        93        94         1
       580       651       652        92        93         1
       581       652       653        91        92         1
       582       653       654        90        91         1
       583       654       655        89        90         1
       584       655       656        88        89         1
       585       656       657        87        88         1
       586       657       658        86        87         1
       587       658       659        85        86         1
       588       659       660        84        85         1
       589       660       661        83        84         1
       590       661       662        82        83         1
       591       662       663        81        82         1
       592       663       664        80        81         1
       593       664       665        79        80         1
       594       665       666        78        79         1
       595       666       667        77        78         1
       596       667       668        76        77         1
       597       668       669        75        76         1
       598       669       670        74        75         1
       599       670       671        73        74         1
       600       671        72         3        73         1
       601       672       674         2
       602       674       675         2
       603       675       676         2
       604       676       677         2
       605       677       678         2
       606       678       679         2
       607       679       680         2
       608       680       681         2
       609       681       682         2
       610       682       683         2
       611       683       684         2
       612       684       685         2
       613       685       686         2
       614       686       687         2
       615       687       688         2
       616       688       689         2
       617       689       690         2
       618       690       691         2
       619       691       692         2
       620       692       693         2
       621       693       694         2
       622       694       695         2
       623       695       696         2
       624       696       697         2
       625       697       698         2
       626       698       699         2
       627       699       700         2
       628       700       701         2
       629       701       702         2
       630       702       703         2
       631       703       704         2
       632       704       705         2
       633       705       706         2
       634       706       707         2
       635       707       708         2
       636       708       709         2
       637       709       710         2
       638       710       711         2
       639       711       712         2
       640       712       713         2
       641       713       714         2
       642       714       715         2
       643       715       716         2
       644       716       717         2
       645       717       718         2
       646       718       719         2
       647       719       720         2
       648       720       721         2
       649       721       722         2
       650       722       723         2
       651       723       724         2
       652       724       725         2
       653       725       726         2
       654       726       727         2
       655       727       728         2
       656       728       729         2
       657       729       730         2
       658       730       731         2
       659       731       732         2
       660       732       673         2
       661       672       733         3
       662       674       734         3
       663       675       735         3
       664       676       736         3
       665       677       737         3
       666       678       738         3
       667       679       739         3
       668       680       740         3
       669       681       741         3
       670       682       742         3
       671       683       743         3
       672       684       744         3
       673       685       745         3
       674       686       746         3
       675       687       747         3
       676       688       748         3
       677       689       749         3
       678       690       750         3
       679       691       751         3
       680       692       752         3
       681       693       753         3
       682       694       754         3
       683       695       755         3
       684       696       756         3
       685       697       757         3
       686       698       758         3
       687       699       759         3
       688       700       760         3
       689       701       761         3
       690       702       762         3
       691       703       763         3
       692       704       764         3
       693       705       765         3
       694       706       766         3
       695       707       767         3
       696       708       768         3
       697       709       769         3
       698       710       770         3
       699       711       771         3
       700       712       772         3
       701       713       773         3
       702       714       774         3
       703       715       775         3
       704       716       776         3
       705       717       777         3
       706       718       778         3
       707       719       779         3
       708       720       780         3
       709       721       781         3
       710       722       782         3
       711       723       783         3
       712       724       784         3
       713       725       785         3
       714       726       786         3
       715       727       787         3
       716       728       788         3
       717       729       789         3
       718       730       790         3
       719       731       791         3
       720       732       792         3
       721       673       793         3
